<svg xmlns="http://www.w3.org/2000/svg" width="77.362" height="77.362" viewBox="0 0 77.362 77.362">
  <g id="Group_322" data-name="Group 322" transform="translate(0 -19)">
    <circle id="Ellipse_1" data-name="Ellipse 1" cx="38.681" cy="38.681" r="38.681" transform="translate(0 19)" fill="#1a202c"/>
    <path id="Path_13" data-name="Path 13" d="M6963.749-1953.872a9.217,9.217,0,0,0-4.313-.915,11.286,11.286,0,0,0-4.729.915,8.376,8.376,0,0,0-3.259,2.6,11.266,11.266,0,0,0-1.866,3.978,15.192,15.192,0,0,0-.379,1.482,12.83,12.83,0,0,0-.252,1.514,7.065,7.065,0,0,0,.365,3.962,5.261,5.261,0,0,0,2.479,2.613,9.309,9.309,0,0,0,4.346.915,11.513,11.513,0,0,0,4.823-.915,8.038,8.038,0,0,0,3.231-2.613,11.782,11.782,0,0,0,1.831-3.962q.168-.666.35-1.514t.286-1.482a6.579,6.579,0,0,0-.382-3.978A5.543,5.543,0,0,0,6963.749-1953.872Zm-2.283,6.741c-.042.333-.126.778-.249,1.332s-.229,1-.313,1.331a5.963,5.963,0,0,1-1.6,2.979,3.909,3.909,0,0,1-2.762,1.015,2.244,2.244,0,0,1-2.18-1.015,4.683,4.683,0,0,1-.218-2.979c.043-.332.125-.777.247-1.331s.229-1,.316-1.332a6.062,6.062,0,0,1,1.6-2.962,3.844,3.844,0,0,1,2.733-1.032,2.279,2.279,0,0,1,2.2,1.032A4.631,4.631,0,0,1,6961.466-1947.131Z" transform="translate(-6910.624 2009.402)" fill="#53f3c3"/>
    <path id="Path_14" data-name="Path 14" d="M6821.037-2031.06l-6.581-6.579-1.956,1.957,2.183,2.183h-29.365a14.3,14.3,0,0,0-4.891,1.08,11.4,11.4,0,0,0-4.337,3.179,12,12,0,0,0-2.44,5.024q-.39,1.546-.754,3.267t-.65,3.231a9.58,9.58,0,0,0,.295,5.146,6.039,6.039,0,0,0,2.936,3.232,11.587,11.587,0,0,0,5.407,1.107,15.08,15.08,0,0,0,5.958-1.142,11.711,11.711,0,0,0,4.478-3.284,11.261,11.261,0,0,0,2.388-5.163l.846-3.83a.783.783,0,0,0-.125-.633.7.7,0,0,0-.579-.246h-8.606a1.052,1.052,0,0,0-.686.246,1.034,1.034,0,0,0-.368.633l-.492,2.248a.756.756,0,0,0,.123.616.637.637,0,0,0,.544.263h3.83l-.175.878a6.358,6.358,0,0,1-1.248,2.775,5.378,5.378,0,0,1-2.144,1.6,7.12,7.12,0,0,1-2.72.51,4.141,4.141,0,0,1-3.251-1.195q-1.075-1.194-.614-3.934.28-1.546.614-3.091t.719-3.057a6.409,6.409,0,0,1,2.179-3.794,6.024,6.024,0,0,1,3.723-1.159h.042l29.745.01-2.562,2.562,1.956,1.957,6.581-6.579-.01-.008Z" transform="translate(-6758.589 2080.823)" fill="#53f3c3"/>
  </g>
</svg>
